name Walk7.mot
datacolumns 19
datarows 22
range 1.65000000 1.75500000
endheader

                time	   L_ground_force_vx	   L_ground_force_vy	   L_ground_force_vz	   L_ground_force_px	   L_ground_force_py	   L_ground_force_pz	   R_ground_force_vx	   R_ground_force_vy	   R_ground_force_vz	   R_ground_force_px	   R_ground_force_py	   R_ground_force_pz	   L_ground_torque_x	   L_ground_torque_y	   L_ground_torque_z	   R_ground_torque_x	   R_ground_torque_y	   R_ground_torque_z	
          1.65000000	         19.57849828	        538.69820870	         35.37647409	         -0.32065522	          0.00000000	         -0.06609621	         -0.00000000	         -0.00000000	         -0.00000000	          0.00000000	          0.00000000	          0.00000000	          0.00000000	         -0.54772357	          0.00000000	          0.00000000	          0.00000000	          0.00000000	
          1.65500000	         21.14896325	        547.13883246	         35.56415779	         -0.31911722	          0.00000000	         -0.06623948	         -0.00000000	          0.00000000	         -0.00000000	          0.00000000	          0.00000000	          0.00000000	          0.00000000	         -0.57316731	          0.00000000	          0.00000000	          0.00000000	          0.00000000	
          1.66000000	         22.67264639	        555.77036854	         35.82938396	         -0.31759576	          0.00000000	         -0.06659588	         -0.00000000	          0.00000000	          0.00000000	          0.00000000	          0.00000000	          0.00000000	          0.00000000	         -0.59954749	          0.00000000	          0.00000000	          0.00000000	          0.00000000	
          1.66500000	         24.35190371	        564.16489849	         36.17660137	         -0.31596562	          0.00000000	         -0.06704135	          0.00000000	         -0.00000000	          0.00000000	         -0.00000000	          0.00000000	         -0.00000000	          0.00000000	         -0.63295286	          0.00000000	          0.00000000	         -0.00000000	          0.00000000	
          1.67000000	         26.07428789	        572.71534599	         36.67984241	         -0.31427645	          0.00000000	         -0.06730005	          0.00000000	         -0.00000000	          0.00000000	         -0.00000000	          0.00000000	         -0.00000000	          0.00000000	         -0.66715564	          0.00000000	          0.00000000	         -0.00000000	          0.00000000	
          1.67500000	         27.76403669	        581.87802383	         37.30419251	         -0.31254515	          0.00000000	         -0.06741861	          0.00000000	         -0.00000000	         -0.00000000	         -0.00000000	          0.00000000	         -0.00000000	          0.00000000	         -0.68269503	          0.00000000	          0.00000000	         -0.00000000	          0.00000000	
          1.68000000	         29.47138546	        591.57313419	         38.07135448	         -0.31078558	          0.00000000	         -0.06764281	         -0.00000000	          0.00000000	         -0.00000000	          0.00000000	          0.00000000	          0.00000000	          0.00000000	         -0.68849800	          0.00000000	          0.00000000	          0.00000000	          0.00000000	
          1.68500000	         31.32967207	        601.41903105	         39.02816079	         -0.30911591	          0.00000000	         -0.06813678	         -0.00000000	          0.00000000	         -0.00000000	          0.00000000	          0.00000000	          0.00000000	          0.00000000	         -0.68064583	          0.00000000	          0.00000000	          0.00000000	          0.00000000	
          1.69000000	         33.34704075	        611.34928960	         40.17726190	         -0.30761635	          0.00000000	         -0.06867373	          0.00000000	          0.00000000	          0.00000000	         -0.00000000	          0.00000000	         -0.00000000	          0.00000000	         -0.65390583	          0.00000000	          0.00000000	          0.00000000	          0.00000000	
          1.69500000	         35.50097724	        621.46510724	         41.45134589	         -0.30610704	          0.00000000	         -0.06900626	          0.00000000	         -0.00000001	          0.00000000	         -0.00000000	          0.00000000	         -0.00000000	          0.00000000	         -0.63925424	          0.00000000	          0.00000000	         -0.00000000	          0.00000000	
          1.70000000	         37.71356515	        631.69312458	         42.74568341	         -0.30451574	          0.00000000	         -0.06915203	          0.00000000	         -0.00000004	         -0.00000000	         -0.00000000	          0.00000000	         -0.00000000	          0.00000000	         -0.63108327	          0.00000000	          0.00000000	         -0.00000000	          0.00000000	
          1.70500000	         39.89016812	        641.49932012	         44.04296420	         -0.30291720	          0.00000000	         -0.06932105	         -0.00000000	         -0.00000005	         -0.00000000	          0.00000000	          0.00000000	          0.00000000	          0.00000000	         -0.62483947	          0.00000000	          0.00000000	          0.00000000	          0.00000000	
          1.71000000	         42.13817322	        650.86828903	         45.37191609	         -0.30138683	          0.00000000	         -0.06954201	         -0.00000002	          0.00000026	         -0.00000001	          0.00000000	          0.00000000	          0.00000000	          0.00000000	         -0.62713523	          0.00000000	          0.00000000	          0.00000000	          0.00000000	
          1.71500000	         44.61698628	        660.18264436	         46.56973711	         -0.30001262	          0.00000000	         -0.06975153	         -0.00000003	          0.00000111	          0.00000001	          0.00000000	          0.00000000	          0.00000000	          0.00000000	         -0.63400848	          0.00000000	          0.00000000	          0.00000000	          0.00000000	
          1.72000000	         47.43113964	        669.51715436	         47.52912603	         -0.29879210	          0.00000000	         -0.06992801	          0.00000012	          0.00000048	          0.00000010	         -0.00000000	          0.00000000	         -0.00000000	          0.00000000	         -0.65652695	          0.00000000	          0.00000000	         -0.00000000	          0.00000000	
          1.72500000	         50.59187265	        678.54892659	         48.32237224	         -0.29772398	          0.00000000	         -0.07011981	          0.00000063	         -0.00000894	          0.00000018	         -0.00000001	          0.00000000	         -0.00000001	          0.00000000	         -0.66175423	          0.00000000	          0.00000000	         -0.00000002	          0.00000000	
          1.73000000	         53.94424207	        687.04453107	         48.91971876	         -0.29684124	          0.00000000	         -0.07022936	          0.00000050	         -0.00002762	         -0.00000045	         -0.00000001	          0.00000000	         -0.00000001	          0.00000000	         -0.67070615	          0.00000000	          0.00000000	         -0.00000003	          0.00000000	
          1.73500000	         57.50178430	        694.61968882	         49.22217927	         -0.29604046	          0.00000000	         -0.07020890	         -0.00000450	          0.00001072	         -0.00000284	          0.00000011	          0.00000000	          0.00000007	          0.00000000	         -0.67851253	          0.00000000	          0.00000000	          0.00000012	          0.00000000	
          1.74000000	         61.51587616	        700.97150221	         49.16485675	         -0.29531633	          0.00000000	         -0.07015943	         -0.00001627	          0.00028237	         -0.00000325	          0.00000036	          0.00000000	          0.00000024	          0.00000000	         -0.68653664	          0.00000000	          0.00000000	          0.00000057	          0.00000000	
          1.74500000	         65.83850329	        706.03442467	         48.88585423	         -0.29463028	          0.00000000	         -0.07011818	         -0.00000071	          0.00063400	          0.00001771	         -0.00000010	          0.00000000	         -0.00000003	          0.00000000	         -0.70963825	          0.00000000	          0.00000000	          0.00000035	          0.00000000	
          1.75000000	         70.22038143	        709.50657693	         48.56319529	         -0.29394099	          0.00000000	         -0.07013038	          0.00014810	         -0.00095695	          0.00007589	         -0.00000356	          0.00000000	         -0.00000232	          0.00000000	         -0.74859943	          0.00000000	          0.00000000	         -0.00000431	          0.00000000	
          1.75500000	         74.52469328	        711.56695776	         48.27853224	         -0.29335599	          0.00000000	         -0.07016508	          0.00039089	         -0.00832590	          0.00003370	         -0.00000830	          0.00000000	         -0.00000574	          0.00000000	         -0.78545867	          0.00000000	          0.00000000	         -0.00001439	          0.00000000	
